<svg width="17" height="21" viewBox="0 0 17 21" fill="none" xmlns="http://www.w3.org/2000/svg">
<path d="M9.98438 0.874023L10.4844 2.79688L10.5752 3.14844L10.2695 3.34375L8.85645 4.25H14.0156L16.75 9.03516V14.9648L14.0781 19.6406L13.1934 19.7393L8.5 20.2607L3.80664 19.7393L2.92188 19.6406L0.25 14.9648V10.5H3.75V14.0352L5.07715 16.3584L8.5 16.7393L11.9219 16.3584L13.25 14.0352V9.96484L11.9844 7.75H8.85645L10.2695 8.65625L10.5752 8.85156L10.4844 9.20312L9.98438 11.126L9.8291 11.7207L9.27832 11.4482L2.27832 7.98633L2.08691 7.89258L2.02344 7.68848L1.52344 6.10254L1.47461 5.94824L1.52637 5.79395L2.02637 4.30273L2.0918 4.10547L2.27832 4.01367L9.27832 0.551758L9.8291 0.279297L9.98438 0.874023Z" fill="black"/>
</svg>
